<?xml version="1.0" encoding="iso-8859-1"?>
<!-- Uploaded to: SVG Repo, www.svgrepo.com, Generator: SVG Repo Mixer Tools -->
<svg version="1.1" id="Layer_1" xmlns="http://www.w3.org/2000/svg" xmlns:xlink="http://www.w3.org/1999/xlink" 
	 viewBox="0 0 512 512" xml:space="preserve">
<path style="fill:#FFFFFF;" d="M501.551,304.073v-23.47c0-52.429-42.501-94.93-94.93-94.93H76.278
	c-11.542,0-20.898,9.356-20.898,20.898v97.503H501.551z"/>
<path style="fill:#CE1128;" d="M55.38,304.073v95.298h51.619l37.394-0.076c0-25.766,20.39-46.654,45.543-46.654
	s45.543,20.887,45.543,46.654h145.965c0-25.766,20.39-46.654,45.543-46.654s45.543,20.887,45.543,46.654l18.402,0.076h10.2v-95.298
	H55.38z"/>
<g>
	<rect x="313.595" y="160.967" style="fill:#003A7F;" width="75.943" height="24.709"/>
	<rect x="118.188" y="160.967" style="fill:#003A7F;" width="75.943" height="24.709"/>
	<rect x="300.931" y="222.689" style="fill:#003A7F;" width="71.836" height="176.671"/>
</g>
<g>
	<rect x="135.858" y="221.529" style="fill:#27B5F7;" width="53.265" height="50.155"/>
	<rect x="217.715" y="221.529" style="fill:#27B5F7;" width="53.265" height="50.155"/>
	<path style="fill:#27B5F7;" d="M480.927,221.526h-72.882v50.155h93.086C499.371,252.815,492.096,235.553,480.927,221.526z"/>
	<rect x="55.38" y="221.686" style="fill:#27B5F7;" width="50.155" height="49.996"/>
</g>
<g>
	<circle style="fill:#003A7F;" cx="188.824" cy="399.13" r="21.943"/>
	<circle style="fill:#003A7F;" cx="426.987" cy="399.13" r="21.943"/>
</g>
<path d="M10.586,420.056h-0.137C4.679,420.056,0,424.734,0,430.505c0,5.771,4.679,10.449,10.449,10.449h0.137
	c5.77,0,10.449-4.678,10.449-10.449C21.035,424.734,16.356,420.056,10.586,420.056z"/>
<path d="M501.551,420.055h-49.87c4.795-5.65,7.697-12.955,7.697-20.927c0-17.86-14.53-32.392-32.392-32.392
	s-32.392,14.531-32.392,32.392c0,7.974,2.902,15.277,7.697,20.927H213.52c4.795-5.65,7.697-12.955,7.697-20.927
	c0-17.86-14.53-32.392-32.392-32.392s-32.392,14.531-32.392,32.392c0,7.974,2.902,15.277,7.697,20.927H44.389
	c-5.77,0-10.449,4.678-10.449,10.449c0,5.771,4.679,10.449,10.449,10.449h457.162c5.77,0,10.449-4.678,10.449-10.449
	C512,424.733,507.321,420.055,501.551,420.055z M426.986,387.634c6.337,0,11.494,5.157,11.494,11.494s-5.157,11.494-11.494,11.494
	s-11.494-5.157-11.494-11.494S420.648,387.634,426.986,387.634z M188.825,387.634c6.337,0,11.494,5.157,11.494,11.494
	s-5.157,11.494-11.494,11.494c-6.337,0-11.494-5.157-11.494-11.494S182.487,387.634,188.825,387.634z"/>
<path d="M428.583,177.531v-64.69c0-11.523,9.375-20.898,20.898-20.898h7.14v13.598c0,5.771,4.679,10.449,10.449,10.449h34.307
	c5.77,0,10.449-4.678,10.449-10.449V81.495c0-5.771-4.679-10.449-10.449-10.449h-51.896c-12.474,0-23.683,5.5-31.347,14.195
	c-7.664-8.695-18.873-14.195-31.347-14.195H334.89c-5.77,0-10.449,4.678-10.449,10.449v24.047c0,5.771,4.679,10.449,10.449,10.449
	h34.307c5.77,0,10.449-4.678,10.449-10.449V91.944h7.141c11.523,0,20.898,9.375,20.898,20.898v62.395
	c-0.354-0.003-7.702-0.014-7.702-0.014v-14.26c0-5.771-4.679-10.449-10.449-10.449H313.59c-5.77,0-10.449,4.678-10.449,10.449v14.26
	h-98.56v-14.26c0-5.771-4.679-10.449-10.449-10.449h-75.944c-5.77,0-10.449,4.678-10.449,10.449v14.26H76.278
	c-17.285,0-31.347,14.062-31.347,31.347v192.724c0,5.771,4.679,10.449,10.449,10.449h86.815c5.762-0.013,10.426-4.687,10.426-10.449
	c0-19.963,16.241-36.205,36.204-36.205s36.204,16.241,36.204,36.205c0,5.771,4.679,10.449,10.449,10.449h144.854
	c5.77,0,10.449-4.678,10.449-10.449c0-19.963,16.242-36.205,36.205-36.205c19.963,0,36.204,16.241,36.204,36.205
	c0,5.759,4.661,10.433,10.421,10.449l27.912,0.076c0.01,0,0.02,0,0.029,0c5.757,0,10.432-4.659,10.448-10.421
	c0-0.018-0.002-0.036-0.002-0.053c0-0.017,0.002-0.033,0.002-0.051V280.601C512,230.025,476.183,187.663,428.583,177.531z
	 M490.928,91.944v3.149h-13.409v-3.149H490.928z M358.748,95.092h-13.409v-3.149h13.409V95.092z M475.64,231.974
	c6.142,8.693,10.681,18.585,13.196,29.257h-70.341v-29.257H475.64z M324.039,171.411h55.046v3.811h-55.046V171.411z
	 M128.636,171.411h55.046v3.811h-55.046C128.636,175.222,128.636,171.411,128.636,171.411z M76.278,196.12h330.343
	c17.782,0,34.288,5.536,47.915,14.956h-46.492c-5.77,0-10.449,4.678-10.449,10.449v50.155c0,5.771,4.679,10.449,10.449,10.449
	h83.058v11.494H383.215v-70.929c0-5.771-4.679-10.449-10.449-10.449h-71.836c-5.77,0-10.449,4.678-10.449,10.449v70.929H65.829
	v-11.494h39.706c5.77,0,10.449-4.678,10.449-10.449v-49.996c0-5.771-4.679-10.449-10.449-10.449H65.829v-4.665
	C65.829,200.807,70.516,196.12,76.278,196.12z M340.615,388.845v-37.398c0-5.771-4.679-10.449-10.449-10.449
	s-10.449,4.678-10.449,10.449v37.398h-8.337V233.143h50.938v155.702H340.615z M65.829,232.133h29.257v29.098H65.829V232.133z
	 M188.825,342.192c-27.926,0-51.232,20.151-56.148,46.675l-8.242,0.019c-0.261-0.02-0.522-0.04-0.789-0.04H65.829v-74.324h224.653
	v74.324h-45.514C240.044,362.332,216.742,342.192,188.825,342.192z M426.986,342.192c-17.558,0-33.287,7.97-43.771,20.478v-48.149
	h107.887v74.372l-7.967-0.022C478.222,362.344,454.913,342.192,426.986,342.192z"/>
<path d="M135.861,282.129h53.266c5.77,0,10.449-4.678,10.449-10.449v-50.155c0-5.771-4.679-10.449-10.449-10.449h-53.266
	c-5.77,0-10.449,4.678-10.449,10.449v50.155C125.412,277.451,130.091,282.129,135.861,282.129z M146.31,231.974h32.368v29.257
	H146.31V231.974z"/>
<path d="M217.711,282.129h53.266c5.77,0,10.449-4.678,10.449-10.449v-50.155c0-5.771-4.679-10.449-10.449-10.449h-53.266
	c-5.77,0-10.449,4.678-10.449,10.449v50.155C207.262,277.451,211.941,282.129,217.711,282.129z M228.16,231.974h32.368v29.257
	H228.16V231.974z"/>
<path d="M330.166,307.057c-5.77,0-10.449,4.678-10.449,10.449v0.137c0,5.771,4.679,10.449,10.449,10.449s10.449-4.678,10.449-10.449
	v-0.137C340.615,311.735,335.936,307.057,330.166,307.057z"/>
<path d="M48.936,91.944v13.598c0,5.771,4.679,10.449,10.449,10.449h34.308c5.77,0,10.449-4.678,10.449-10.449V81.495
	c0-5.771-4.679-10.449-10.449-10.449H41.796C18.75,71.046,0,89.795,0,112.842v277.945c0,5.771,4.679,10.449,10.449,10.449
	s10.449-4.678,10.449-10.449V112.842c0-11.523,9.375-20.898,20.898-20.898H48.936z M83.244,91.944v3.149h-13.41v-3.149H83.244z"/>
</svg>